<svg width="48" height="48" viewBox="0 0 48 48" fill="none" xmlns="http://www.w3.org/2000/svg">
<mask id="path-1-inside-1" fill="white">
<path fill-rule="evenodd" clip-rule="evenodd" d="M15.2361 7C14.4785 7 13.786 7.428 13.4472 8.10557L12 11H8C3.58172 11 0 14.5817 0 19V33C0 37.4183 3.58172 41 8 41H40C44.4183 41 48 37.4183 48 33V19C48 14.5817 44.4183 11 40 11H36L34.5528 8.10557C34.214 7.428 33.5215 7 32.7639 7H15.2361Z"/>
</mask>
<path d="M13.4472 8.10557L10.7639 6.76393L10.7639 6.76393L13.4472 8.10557ZM12 11V14H13.8541L14.6833 12.3416L12 11ZM36 11L33.3167 12.3416L34.1459 14H36V11ZM34.5528 8.10557L37.2361 6.76393L37.2361 6.76392L34.5528 8.10557ZM16.1305 9.44721C15.9611 9.786 15.6148 10 15.2361 10V4C13.3422 4 11.6109 5.07001 10.7639 6.76393L16.1305 9.44721ZM14.6833 12.3416L16.1305 9.44721L10.7639 6.76393L9.31672 9.65836L14.6833 12.3416ZM8 14H12V8H8V14ZM3 19C3 16.2386 5.23858 14 8 14V8C1.92487 8 -3 12.9249 -3 19H3ZM3 33V19H-3V33H3ZM8 38C5.23858 38 3 35.7614 3 33H-3C-3 39.0751 1.92487 44 8 44V38ZM40 38H8V44H40V38ZM45 33C45 35.7614 42.7614 38 40 38V44C46.0751 44 51 39.0751 51 33H45ZM45 19V33H51V19H45ZM40 14C42.7614 14 45 16.2386 45 19H51C51 12.9249 46.0751 8 40 8V14ZM36 14H40V8H36V14ZM31.8695 9.44721L33.3167 12.3416L38.6833 9.65836L37.2361 6.76393L31.8695 9.44721ZM32.7639 10C32.3852 10 32.0389 9.78599 31.8695 9.44722L37.2361 6.76392C36.3891 5.07002 34.6578 4 32.7639 4V10ZM15.2361 10H32.7639V4H15.2361V10Z" fill="#1E3462" mask="url(#path-1-inside-1)"/>
<circle cx="24" cy="25" r="6.5" stroke="#FF498B" stroke-width="3"/>
<line x1="41.5" y1="17.5" x2="34.5" y2="17.5" stroke="#1E3462" stroke-width="3" stroke-linecap="round"/>
</svg>
