<svg width="48" height="48" viewBox="0 0 48 48" fill="none" xmlns="http://www.w3.org/2000/svg">
<path d="M37.5 13.0909C37.5 16.4668 35.879 25.0135 33.1895 32.765C31.85 36.6255 30.2827 40.1769 28.5883 42.7335C27.7412 44.0118 26.9011 44.9816 26.0935 45.6193C25.2907 46.2531 24.598 46.5 24 46.5C23.402 46.5 22.7093 46.2531 21.9065 45.6193C21.0989 44.9816 20.2588 44.0118 19.4117 42.7335C17.7173 40.1769 16.15 36.6255 14.8105 32.765C12.121 25.0135 10.5 16.4668 10.5 13.0909C10.5 6.8747 16.3459 1.5 24 1.5C31.6541 1.5 37.5 6.8747 37.5 13.0909Z" stroke="#1E3462" stroke-width="3"/>
<path d="M37.5 13.0909C37.5 16.4668 35.879 25.0135 33.1895 32.765C31.85 36.6255 30.2827 40.1769 28.5883 42.7335C27.7412 44.0118 26.9011 44.9816 26.0935 45.6193C25.2907 46.2531 24.598 46.5 24 46.5C23.402 46.5 22.7093 46.2531 21.9065 45.6193C21.0989 44.9816 20.2588 44.0118 19.4117 42.7335C17.7173 40.1769 16.15 36.6255 14.8105 32.765C12.121 25.0135 10.5 16.4668 10.5 13.0909C10.5 6.8747 16.3459 1.5 24 1.5C31.6541 1.5 37.5 6.8747 37.5 13.0909Z" stroke="#1E3462" stroke-width="3"/>
<circle cx="24" cy="14" r="5.5" stroke="#FF498B" stroke-width="3"/>
</svg>
