<svg width="48" height="48" viewBox="0 0 48 48" fill="none" xmlns="http://www.w3.org/2000/svg">
<path d="M9.5 18C9.5 14.4101 12.4101 11.5 16 11.5H33C36.5899 11.5 39.5 14.4101 39.5 18V40C39.5 43.5899 36.5899 46.5 33 46.5H16C12.4101 46.5 9.5 43.5899 9.5 40V18Z" stroke="#1E3462" stroke-width="3"/>
<path d="M9.5 18C9.5 14.4101 12.4101 11.5 16 11.5H33C36.5899 11.5 39.5 14.4101 39.5 18V40C39.5 43.5899 36.5899 46.5 33 46.5H16C12.4101 46.5 9.5 43.5899 9.5 40V18Z" stroke="#1E3462" stroke-width="3"/>
<path d="M16.5 20.5V39.5" stroke="#FF498B" stroke-width="3" stroke-linecap="round"/>
<line x1="32.5" y1="20.5" x2="32.5" y2="39.5" stroke="#FF498B" stroke-width="3" stroke-linecap="round"/>
<line x1="24.5" y1="25.5" x2="24.5" y2="35.5" stroke="#FF498B" stroke-width="3" stroke-linecap="round"/>
<path d="M17.5 4C17.5 2.61929 18.6193 1.5 20 1.5H29C30.3807 1.5 31.5 2.61929 31.5 4V11.5H17.5V4Z" stroke="#1E3462" stroke-width="3"/>
<path d="M17.5 4C17.5 2.61929 18.6193 1.5 20 1.5H29C30.3807 1.5 31.5 2.61929 31.5 4V11.5H17.5V4Z" stroke="#1E3462" stroke-width="3"/>
</svg>
